HIERARCHY
ROOT Hips
{
	OFFSET 0.00000 0.00000 0.00000
	CHANNELS 6 Xposition Yposition Zposition Zrotation Yrotation Xrotation 
	JOINT LHipJoint
	{
		OFFSET 0 0 0
		CHANNELS 3 Zrotation Yrotation Xrotation
		JOINT LeftUpLeg
		{
			OFFSET 1.46561 -1.72757 0.83774
			CHANNELS 3 Zrotation Yrotation Xrotation
			JOINT LeftLeg
			{
				OFFSET 2.48915 -6.83890 0.00000
				CHANNELS 3 Zrotation Yrotation Xrotation
				JOINT LeftFoot
				{
					OFFSET 2.60555 -7.15868 0.00000
					CHANNELS 3 Zrotation Yrotation Xrotation
					JOINT LeftToeBase
					{
						OFFSET 0.19248 -0.52884 2.26738
						CHANNELS 3 Zrotation Yrotation Xrotation
						End Site
						{
							OFFSET 0.00000 -0.00000 1.17015
						}
					}
				}
			}
		}
	}
	JOINT RHipJoint
	{
		OFFSET 0 0 0
		CHANNELS 3 Zrotation Yrotation Xrotation
		JOINT RightUpLeg
		{
			OFFSET -1.46918 -1.72757 0.83774
			CHANNELS 3 Zrotation Yrotation Xrotation
			JOINT RightLeg
			{
				OFFSET -2.49034 -6.84216 0.00000
				CHANNELS 3 Zrotation Yrotation Xrotation
				JOINT RightFoot
				{
					OFFSET -2.65971 -7.30750 0.00000
					CHANNELS 3 Zrotation Yrotation Xrotation
					JOINT RightToeBase
					{
						OFFSET -0.19227 -0.52827 2.30785
						CHANNELS 3 Zrotation Yrotation Xrotation
						End Site
						{
							OFFSET -0.00000 -0.00000 1.18972
						}
					}
				}
			}
		}
	}
	JOINT LowerBack
	{
		OFFSET 0 0 0
		CHANNELS 3 Zrotation Yrotation Xrotation
		JOINT Spine
		{
			OFFSET 0.02432 2.19909 -0.28000
			CHANNELS 3 Zrotation Yrotation Xrotation
			JOINT Spine1
			{
				OFFSET 0.03714 2.21816 -0.15261
				CHANNELS 3 Zrotation Yrotation Xrotation
				JOINT Neck
				{
					OFFSET 0 0 0
					CHANNELS 3 Zrotation Yrotation Xrotation
					JOINT Neck1
					{
						OFFSET -0.01896 1.56165 0.21681
						CHANNELS 3 Zrotation Yrotation Xrotation
						JOINT Head
						{
							OFFSET 0.02744 1.56009 0.06764
							CHANNELS 3 Zrotation Yrotation Xrotation
							End Site
							{
								OFFSET 0.01212 1.60574 0.00298
							}
						}
					}
				}
				JOINT LeftShoulder
				{
					OFFSET 0 0 0
					CHANNELS 3 Zrotation Yrotation Xrotation
					JOINT LeftArm
					{
						OFFSET 3.05595 1.48048 -0.60794
						CHANNELS 3 Zrotation Yrotation Xrotation
						JOINT LeftForeArm
						{
							OFFSET 5.20607 -0.00000 -0.00000
							CHANNELS 3 Zrotation Yrotation Xrotation
							JOINT LeftHand
							{
								OFFSET 3.39961 -0.00000 0.00000
								CHANNELS 3 Zrotation Yrotation Xrotation
								JOINT LeftFingerBase
								{
									OFFSET 0 0 0
									CHANNELS 3 Zrotation Yrotation Xrotation
									JOINT LeftHandIndex1
									{
										OFFSET 0.51969 -0.00000 0.00000
										CHANNELS 3 Zrotation Yrotation Xrotation
										End Site
										{
											OFFSET 0.41899 -0.00000 0.00000
										}
									}
								}
								JOINT LThumb
								{
									OFFSET 0 0 0
									CHANNELS 3 Zrotation Yrotation Xrotation
									End Site
									{
										OFFSET 0.42539 -0.00000 0.42539
									}
								}
							}
						}
					}
				}
				JOINT RightShoulder
				{
					OFFSET 0 0 0
					CHANNELS 3 Zrotation Yrotation Xrotation
					JOINT RightArm
					{
						OFFSET -2.99052 1.57608 -0.69102
						CHANNELS 3 Zrotation Yrotation Xrotation
						JOINT RightForeArm
						{
							OFFSET -5.32214 -0.00000 0.00000
							CHANNELS 3 Zrotation Yrotation Xrotation
							JOINT RightHand
							{
								OFFSET -3.51208 -0.00000 0.00000
								CHANNELS 3 Zrotation Yrotation Xrotation
								JOINT RightFingerBase
								{
									OFFSET 0 0 0
									CHANNELS 3 Zrotation Yrotation Xrotation
									JOINT RightHandIndex1
									{
										OFFSET -0.58668 -0.00000 0.00000
										CHANNELS 3 Zrotation Yrotation Xrotation
										End Site
										{
											OFFSET -0.47300 -0.00000 0.00000
										}
									}
								}
								JOINT RThumb
								{
									OFFSET 0 0 0
									CHANNELS 3 Zrotation Yrotation Xrotation
									End Site
									{
										OFFSET -0.48022 -0.00000 0.48022
									}
								}
							}
						}
					}
				}
			}
		}
	}
}
MOTION
Frames: 11
Frame Time: .0083333
0.5775 17.6555 -14.0501 0 0 0 0 0 0 -21 0 0 0 0 0 0 0 0 0 0 0 0 0 0 21 0 0 0 0 0 0 0 0 0 0 0 0 0 0 0 0 0 0 0 0 0 0 -16 0 0 21 0 0 11 0 0 0 -8 0 0 0 0 0 0 0 0 0 0 0 0 0 0 0 0 0 0 0 0 8 0 0 0 0 0 0 0 0 0 0 0 0 0 0 0 0 0
0.5775 17.6555 -14.0501 -0.9925 -1.5117 6.7062 0.0000 0.0000 0.0000 -17.6897 2.9952 -9.8215 0.4934 4.5034 12.4974 0.2220 3.1975 -10.6696 0.0037 0.3934 1.0808 0.0000 0.0000 0.0000 18.4926 1.2869 -11.9942 -0.9220 -6.1174 17.1256 -0.4543 1.8632 -12.2240 -0.4549 -4.3268 11.9980 -0.2434 -0.2145 -4.7317 1.4167 -0.3471 3.1478 1.5762 -0.2135 5.9364 -2.0508 0.5920 -12.3468 0.4894 1.2741 36.5079 0.7663 0.3233 14.6476 0.0000 0.0000 0.0000 -86.3250 -9.9632 27.1923 7.7605 -13.1638 -0.8968 -0.0000 -0.0000 5.2562 24.0684 -1.8997 -0.8483 -7.1250 0.0000 -0.0000 -1.9400 27.8977 0.8072 0.0000 0.0000 0.0000 88.7230 8.2464 18.0827 -12.5028 20.5544 -2.2757 0.0000 0.0000 33.2382 -21.8171 -25.2432 9.6881 7.1250 -0.0000 -0.0000 8.6215 -56.6960 -2.4845
0.5781 17.6552 -14.0498 -1.0111 -1.4770 6.6876 0.0000 0.0000 0.0000 -17.6680 2.9910 -9.8085 0.4945 4.5085 12.5118 0.2229 3.1800 -10.6737 0.0034 0.3751 1.0307 0.0000 0.0000 0.0000 18.5139 1.2668 -11.9626 -0.9204 -6.1123 17.1107 -0.4544 1.8367 -12.2306 -0.4543 -4.3240 11.9900 -0.2068 -0.2140 -4.7166 1.4139 -0.3490 3.1584 1.5526 -0.2130 5.9387 -2.0107 0.5804 -12.3946 0.4501 1.2617 36.5334 0.7416 0.3178 14.6717 -0.0000 0.0000 0.0000 -86.4015 -9.8866 27.4759 7.8274 -13.2726 -0.9121 -0.0000 -0.0000 4.8909 23.9149 -1.6139 -0.7156 -7.1250 0.0000 -0.0000 -2.0615 28.2123 0.8425 -0.0000 0.0000 0.0000 88.6978 8.2182 18.0404 -12.5217 20.5825 -2.2824 0.0000 0.0000 33.2695 -21.8110 -25.2303 9.6807 7.1250 -0.0000 -0.0000 8.6222 -56.6816 -2.4816
0.5782 17.6552 -14.0503 -1.0033 -1.4280 6.6888 0.0000 0.0000 0.0000 -17.6741 2.9742 -9.8152 0.4945 4.5085 12.5117 0.2238 3.1391 -10.6617 0.0034 0.3765 1.0344 0.0000 0.0000 0.0000 18.5060 1.2560 -11.9609 -0.9202 -6.1119 17.1094 -0.4549 1.7999 -12.2446 -0.4557 -4.3307 12.0091 -0.2194 -0.2293 -4.7229 1.4212 -0.3691 3.1685 1.5654 -0.2237 5.9537 -2.0447 0.5733 -12.3802 0.4584 1.2571 36.4832 0.7498 0.3130 14.6444 0.0000 0.0000 0.0000 -86.5048 -9.8234 27.7726 7.8929 -13.3792 -0.9272 -0.0000 -0.0000 4.5263 24.1044 -1.9500 -0.8722 -7.1250 0.0000 -0.0000 -1.9117 27.8421 0.7980 0.0000 0.0000 0.0000 88.6497 8.1972 18.0423 -12.5377 20.6061 -2.2880 0.0000 0.0000 33.2320 -21.8489 -25.2569 9.7082 7.1250 -0.0000 -0.0000 8.5938 -56.7168 -2.4807
0.5788 17.6549 -14.0502 -1.0022 -1.3873 6.6700 0.0000 0.0000 0.0000 -17.6736 2.9651 -9.7962 0.4947 4.5094 12.5142 0.2249 3.1151 -10.6645 0.0034 0.3790 1.0412 0.0000 0.0000 0.0000 18.5062 1.2181 -11.9425 -0.9198 -6.1106 17.1056 -0.4557 1.7871 -12.2586 -0.4512 -4.3093 11.9484 -0.2117 -0.2338 -4.7043 1.4177 -0.3754 3.1702 1.5568 -0.2264 5.9449 -2.0315 0.5672 -12.3856 0.4604 1.2437 36.4828 0.7463 0.3095 14.6457 -0.0000 0.0000 0.0000 -86.6059 -9.7737 28.0101 7.9431 -13.4606 -0.9388 -0.0000 -0.0000 4.2825 24.0082 -1.9315 -0.8601 -7.1250 0.0000 -0.0000 -1.9861 27.8637 0.8281 -0.0000 0.0000 0.0000 88.6289 8.1728 17.9908 -12.5369 20.6049 -2.2877 0.0000 0.0000 33.2216 -21.8902 -25.1574 9.6930 7.1250 -0.0000 -0.0000 8.5056 -56.6236 -2.4358
0.5791 17.6548 -14.0504 -1.0017 -1.3420 6.6594 0.0000 0.0000 0.0000 -17.6718 2.9567 -9.7866 0.4944 4.5083 12.5112 0.2258 3.0828 -10.6574 0.0034 0.3774 1.0369 0.0000 0.0000 0.0000 18.5075 1.1937 -11.9312 -0.9199 -6.1109 17.1065 -0.4566 1.7632 -12.2760 -0.4495 -4.3016 11.9268 -0.2083 -0.2414 -4.6926 1.4180 -0.3858 3.1730 1.5542 -0.2314 5.9414 -2.0338 0.5598 -12.3843 0.4654 1.2316 36.4688 0.7467 0.3049 14.6389 0.0000 -0.0000 0.0000 -86.7033 -9.7210 28.2927 7.9934 -13.5422 -0.9506 -0.0000 -0.0000 4.0088 24.0225 -2.0267 -0.9030 -7.1250 0.0000 -0.0000 -1.9743 27.7594 0.8280 0.0000 -0.0000 0.0000 88.5997 8.1453 17.9596 -12.5439 20.6153 -2.2902 0.0000 0.0000 33.2044 -21.9215 -25.1243 9.6963 7.1250 -0.0000 -0.0000 8.4577 -56.5963 -2.4163
0.5794 17.6548 -14.0506 -0.9998 -1.2976 6.6530 0.0000 0.0000 0.0000 -17.6716 2.9470 -9.7834 0.4944 4.5082 12.5111 0.2268 3.0500 -10.6520 0.0034 0.3765 1.0345 0.0000 0.0000 0.0000 18.5077 1.1703 -11.9239 -0.9198 -6.1106 17.1056 -0.4574 1.7395 -12.2912 -0.4478 -4.2933 11.9032 -0.2082 -0.2486 -4.6841 1.4181 -0.3954 3.1738 1.5533 -0.2361 5.9376 -2.0403 0.5520 -12.3804 0.4777 1.2171 36.4533 0.7505 0.2998 14.6307 -0.0000 0.0000 0.0000 -86.8003 -9.6771 28.5963 8.0387 -13.6156 -0.9612 -0.0000 -0.0000 3.7630 24.0656 -2.1440 -0.9572 -7.1250 0.0000 -0.0000 -1.9402 27.6303 0.8196 -0.0000 0.0000 0.0000 88.5726 8.1177 17.9305 -12.5494 20.6234 -2.2921 0.0000 0.0000 33.1827 -21.9520 -25.0963 9.7010 7.1250 -0.0000 -0.0000 8.4128 -56.5740 -2.3988
0.5794 17.6549 -14.0510 -0.9974 -1.2583 6.6505 0.0000 0.0000 0.0000 -17.6720 2.9370 -9.7847 0.4945 4.5085 12.5119 0.2277 3.0203 -10.6474 0.0034 0.3770 1.0358 0.0000 0.0000 0.0000 18.5074 1.1537 -11.9198 -0.9197 -6.1100 17.1040 -0.4580 1.7143 -12.3048 -0.4458 -4.2838 11.8765 -0.2090 -0.2537 -4.6822 1.4162 -0.4021 3.1750 1.5512 -0.2394 5.9380 -2.0430 0.5440 -12.3815 0.4913 1.2011 36.4411 0.7540 0.2946 14.6253 0.0000 0.0000 0.0000 -86.8929 -9.6442 28.9293 8.0816 -13.6850 -0.9713 -0.0000 -0.0000 3.5348 24.0971 -2.2064 -0.9865 -7.1250 0.0000 -0.0000 -1.9157 27.5614 0.8123 0.0000 0.0000 0.0000 88.5515 8.0942 17.8998 -12.5530 20.6287 -2.2934 0.0000 0.0000 33.1649 -21.9797 -25.0777 9.7076 7.1250 -0.0000 -0.0000 8.3754 -56.5609 -2.3854
0.5794 17.6550 -14.0514 -0.9946 -1.2258 6.6521 0.0000 0.0000 0.0000 -17.6733 2.9271 -9.7905 0.4947 4.5094 12.5143 0.2285 2.9940 -10.6441 0.0034 0.3785 1.0400 0.0000 0.0000 0.0000 18.5064 1.1430 -11.9196 -0.9194 -6.1090 17.1011 -0.4584 1.6907 -12.3153 -0.4444 -4.2770 11.8573 -0.2111 -0.2570 -4.6888 1.4133 -0.4062 3.1779 1.5489 -0.2415 5.9450 -2.0461 0.5359 -12.3856 0.5069 1.1844 36.4282 0.7583 0.2894 14.6202 0.0000 0.0000 0.0000 -86.9818 -9.6238 29.2888 8.1229 -13.7520 -0.9812 -0.0000 -0.0000 3.3226 24.1314 -2.2349 -1.0008 -7.1250 0.0000 -0.0000 -1.8890 27.5297 0.8024 0.0000 0.0000 0.0000 88.5335 8.0746 17.8731 -12.5563 20.6336 -2.2945 0.0000 0.0000 33.1528 -21.9996 -25.0755 9.7164 7.1250 -0.0000 -0.0000 8.3531 -56.5629 -2.3794
0.5792 17.6551 -14.0517 -0.9932 -1.2002 6.6563 0.0000 0.0000 0.0000 -17.6730 2.9183 -9.7998 0.4951 4.5111 12.5192 0.2293 2.9715 -10.6422 0.0035 0.3825 1.0510 0.0000 0.0000 0.0000 18.5069 1.1357 -11.9219 -0.9189 -6.1077 17.0971 -0.4586 1.6709 -12.3226 -0.4428 -4.2697 11.8367 -0.2126 -0.2579 -4.7018 1.4096 -0.4072 3.1812 1.5458 -0.2420 5.9560 -2.0451 0.5286 -12.3925 0.5216 1.1679 36.4178 0.7616 0.2847 14.6170 0.0000 -0.0000 0.0000 -87.0678 -9.6111 29.6661 8.1661 -13.8218 -0.9914 -0.0000 -0.0000 3.1268 24.1548 -2.2191 -0.9948 -7.1250 0.0000 -0.0000 -1.8712 27.5465 0.7941 0.0000 -0.0000 0.0000 88.5190 8.0572 17.8469 -12.5572 20.6350 -2.2949 0.0000 0.0000 33.1484 -22.0154 -25.0741 9.7235 7.1250 -0.0000 -0.0000 8.3357 -56.5648 -2.3748
0.5789 17.6551 -14.0521 -0.9944 -1.1783 6.6601 0.0000 0.0000 0.0000 -17.6696 2.9087 -9.8084 0.4955 4.5132 12.5250 0.2299 2.9536 -10.6420 0.0036 0.3869 1.0630 0.0000 0.0000 0.0000 18.5101 1.1292 -11.9243 -0.9185 -6.1062 17.0928 -0.4588 1.6541 -12.3286 -0.4413 -4.2626 11.8167 -0.2107 -0.2574 -4.7163 1.4054 -0.4066 3.1853 1.5404 -0.2416 5.9685 -2.0402 0.5224 -12.4005 0.5342 1.1530 36.4085 0.7636 0.2808 14.6146 -0.0000 0.0000 0.0000 -87.1498 -9.6048 30.0590 8.2118 -13.8956 -1.0024 -0.0000 -0.0000 2.9423 24.1708 -2.1914 -0.9832 -7.1250 0.0000 -0.0000 -1.8590 27.5766 0.7876 -0.0000 0.0000 0.0000 88.5082 8.0414 17.8184 -12.5556 20.6326 -2.2943 0.0000 0.0000 33.1584 -22.0253 -25.0733 9.7279 7.1250 -0.0000 -0.0000 8.3249 -56.5660 -2.3719
